<?xml version="1.0"?>
<svg viewBox="0 0 128 128" xmlns="http://www.w3.org/2000/svg">
	<path d="m0 0v128h128v-128z" fill="#911"/>
	<path d="m96.27 105.2 10.66-9.78s-5.22-5.35-6.06-6.33c7.82-10.93 19.5-45.04-30.24-75.24-.75-.45-3.21-2.27-4.15-1.26-.91.98 1.11 2.84 1.46 3.14 35.34 31.6 25.53 56.45 21.23 61.4-.9-.82-28.49-30.25-28.49-30.25l11.87-12.84h-20.84l-21.28 19.7 11.08 11.26 10.55-9.32s27.77 30.86 28.31 31.48c-10.82 9.18-26.44 8.38-39.04-8.71-1.83 1.33-5.45 2.9-5.45 2.9h-5.28l-.35 4.22s-1.05 1.58-3.34 2.81-4.66 1.76-10.02 5.63c-2.89 2.08-5.26 6.71-2.64 10.55 2.46 3.61 11.25.53 14.59-4.75s5.98-8.62 7.74-8.62 13.45 16 32.71 16c8.62 0 16.71-3.52 21.81-7.295z" fill="#169" stroke="#fff" stroke-width="2.2"/>
</svg>
